<?xml version="1.0" encoding="UTF-8"?>
<svg xmlns="http://www.w3.org/2000/svg" xmlns:xlink="http://www.w3.org/1999/xlink" width="375pt" height="374.999991pt" viewBox="0 0 375 374.999991" version="1.2">
<defs>
<clipPath id="clip1">
  <path d="M 5.476562 243 L 238 243 L 238 339.96875 L 5.476562 339.96875 Z M 5.476562 243 "/>
</clipPath>
<clipPath id="clip2">
  <path d="M 256 31 L 372.226562 31 L 372.226562 339.96875 L 256 339.96875 Z M 256 31 "/>
</clipPath>
</defs>
<g id="surface1">
<path style=" stroke:none;fill-rule:nonzero;fill:rgb(19.60907%,18.429565%,36.468506%);fill-opacity:1;" d="M 57.832031 224.082031 L 185.410156 224.082031 L 160.175781 173.535156 L 160.175781 50.324219 L 169.816406 50.324219 C 170.449219 50.324219 171.074219 50.261719 171.695312 50.140625 C 172.316406 50.015625 172.917969 49.832031 173.503906 49.589844 C 174.085938 49.347656 174.644531 49.050781 175.167969 48.699219 C 175.695312 48.34375 176.183594 47.945312 176.628906 47.496094 C 177.078125 47.050781 177.476562 46.5625 177.828125 46.035156 C 178.179688 45.507812 178.476562 44.949219 178.71875 44.367188 C 178.960938 43.78125 179.144531 43.175781 179.269531 42.554688 C 179.390625 41.933594 179.453125 41.304688 179.453125 40.671875 C 179.453125 40.039062 179.390625 39.410156 179.269531 38.789062 C 179.144531 38.167969 178.960938 37.5625 178.71875 36.976562 C 178.476562 36.390625 178.179688 35.835938 177.828125 35.308594 C 177.476562 34.78125 177.078125 34.292969 176.628906 33.84375 C 176.183594 33.398438 175.695312 32.996094 175.167969 32.644531 C 174.644531 32.292969 174.085938 31.996094 173.503906 31.753906 C 172.917969 31.511719 172.316406 31.328125 171.695312 31.203125 C 171.074219 31.078125 170.449219 31.019531 169.816406 31.019531 L 73.429688 31.019531 C 72.796875 31.019531 72.167969 31.078125 71.546875 31.203125 C 70.925781 31.328125 70.324219 31.511719 69.738281 31.753906 C 69.15625 31.996094 68.597656 32.292969 68.074219 32.644531 C 67.546875 32.996094 67.058594 33.398438 66.613281 33.84375 C 66.164062 34.292969 65.765625 34.78125 65.414062 35.308594 C 65.0625 35.835938 64.765625 36.390625 64.523438 36.976562 C 64.28125 37.5625 64.097656 38.167969 63.976562 38.789062 C 63.851562 39.410156 63.789062 40.039062 63.789062 40.671875 C 63.789062 41.304688 63.851562 41.933594 63.976562 42.554688 C 64.097656 43.175781 64.28125 43.78125 64.523438 44.367188 C 64.765625 44.949219 65.0625 45.507812 65.414062 46.035156 C 65.765625 46.5625 66.164062 47.050781 66.613281 47.496094 C 67.058594 47.945312 67.546875 48.34375 68.074219 48.699219 C 68.597656 49.050781 69.15625 49.347656 69.738281 49.589844 C 70.324219 49.832031 70.925781 50.015625 71.546875 50.140625 C 72.167969 50.261719 72.796875 50.324219 73.429688 50.324219 L 83.066406 50.324219 L 83.066406 173.535156 Z M 57.832031 224.082031 "/>
<g clip-path="url(#clip1)" clip-rule="nonzero">
<path style=" stroke:none;fill-rule:nonzero;fill:rgb(19.60907%,18.429565%,36.468506%);fill-opacity:1;" d="M 195.050781 243.390625 L 48.191406 243.390625 L 6.972656 325.953125 C 6.789062 326.320312 6.632812 326.695312 6.496094 327.082031 C 6.359375 327.46875 6.25 327.863281 6.164062 328.265625 C 6.078125 328.664062 6.019531 329.070312 5.988281 329.476562 C 5.953125 329.886719 5.945312 330.296875 5.964844 330.703125 C 5.980469 331.113281 6.023438 331.519531 6.09375 331.925781 C 6.164062 332.328125 6.261719 332.726562 6.382812 333.117188 C 6.5 333.507812 6.648438 333.890625 6.816406 334.265625 C 6.984375 334.636719 7.175781 335 7.390625 335.347656 C 7.609375 335.695312 7.84375 336.03125 8.101562 336.347656 C 8.359375 336.667969 8.636719 336.96875 8.933594 337.25 C 9.226562 337.535156 9.539062 337.796875 9.871094 338.039062 C 10.199219 338.285156 10.542969 338.503906 10.898438 338.703125 C 11.257812 338.902344 11.625 339.078125 12.007812 339.230469 C 12.386719 339.382812 12.773438 339.511719 13.171875 339.613281 C 13.566406 339.71875 13.96875 339.792969 14.375 339.847656 C 14.78125 339.898438 15.1875 339.921875 15.597656 339.921875 L 227.644531 339.921875 C 228.054688 339.921875 228.464844 339.898438 228.871094 339.847656 C 229.273438 339.792969 229.675781 339.71875 230.074219 339.613281 C 230.46875 339.511719 230.855469 339.382812 231.238281 339.230469 C 231.617188 339.078125 231.984375 338.902344 232.34375 338.703125 C 232.699219 338.503906 233.042969 338.285156 233.375 338.039062 C 233.703125 337.796875 234.015625 337.535156 234.3125 337.25 C 234.605469 336.96875 234.882812 336.667969 235.140625 336.347656 C 235.398438 336.03125 235.636719 335.695312 235.851562 335.347656 C 236.066406 335 236.257812 334.636719 236.425781 334.265625 C 236.597656 333.890625 236.742188 333.507812 236.863281 333.117188 C 236.980469 332.726562 237.078125 332.328125 237.148438 331.925781 C 237.21875 331.519531 237.261719 331.113281 237.28125 330.703125 C 237.296875 330.296875 237.289062 329.886719 237.257812 329.476562 C 237.222656 329.070312 237.164062 328.664062 237.078125 328.265625 C 236.992188 327.863281 236.882812 327.46875 236.746094 327.082031 C 236.609375 326.695312 236.453125 326.320312 236.269531 325.953125 Z M 195.050781 243.390625 "/>
</g>
<g clip-path="url(#clip2)" clip-rule="nonzero">
<path style=" stroke:none;fill-rule:nonzero;fill:rgb(19.60907%,18.429565%,36.468506%);fill-opacity:1;" d="M 362.585938 31.019531 L 266.199219 31.019531 C 265.566406 31.019531 264.941406 31.078125 264.320312 31.203125 C 263.699219 31.328125 263.097656 31.511719 262.511719 31.753906 C 261.925781 31.996094 261.371094 32.292969 260.847656 32.644531 C 260.320312 32.996094 259.832031 33.398438 259.386719 33.84375 C 258.9375 34.292969 258.539062 34.78125 258.1875 35.308594 C 257.835938 35.835938 257.539062 36.390625 257.296875 36.976562 C 257.054688 37.5625 256.871094 38.167969 256.746094 38.789062 C 256.625 39.410156 256.5625 40.039062 256.5625 40.671875 C 256.5625 41.304688 256.625 41.933594 256.746094 42.554688 C 256.871094 43.175781 257.054688 43.78125 257.296875 44.367188 C 257.539062 44.949219 257.835938 45.507812 258.1875 46.035156 C 258.539062 46.5625 258.9375 47.050781 259.386719 47.496094 C 259.832031 47.945312 260.320312 48.34375 260.847656 48.699219 C 261.371094 49.050781 261.925781 49.347656 262.511719 49.589844 C 263.097656 49.832031 263.699219 50.015625 264.320312 50.140625 C 264.941406 50.261719 265.566406 50.324219 266.199219 50.324219 L 275.839844 50.324219 L 275.839844 301.308594 C 275.839844 302.574219 275.902344 303.835938 276.023438 305.09375 C 276.148438 306.351562 276.335938 307.601562 276.582031 308.84375 C 276.828125 310.082031 277.132812 311.308594 277.5 312.519531 C 277.867188 313.730469 278.292969 314.917969 278.773438 316.085938 C 279.257812 317.253906 279.796875 318.398438 280.390625 319.511719 C 280.988281 320.628906 281.636719 321.710938 282.335938 322.761719 C 283.039062 323.8125 283.789062 324.828125 284.589844 325.804688 C 285.390625 326.785156 286.238281 327.71875 287.132812 328.613281 C 288.023438 329.507812 288.960938 330.355469 289.933594 331.160156 C 290.910156 331.960938 291.925781 332.714844 292.972656 333.414062 C 294.023438 334.117188 295.105469 334.769531 296.21875 335.363281 C 297.332031 335.960938 298.472656 336.5 299.640625 336.984375 C 300.804688 337.46875 301.992188 337.894531 303.203125 338.261719 C 304.410156 338.628906 305.632812 338.933594 306.871094 339.179688 C 308.109375 339.429688 309.359375 339.613281 310.613281 339.738281 C 311.871094 339.859375 313.132812 339.921875 314.394531 339.921875 C 315.65625 339.921875 316.917969 339.859375 318.171875 339.738281 C 319.429688 339.613281 320.675781 339.429688 321.914062 339.179688 C 323.152344 338.933594 324.378906 338.628906 325.585938 338.261719 C 326.792969 337.894531 327.980469 337.46875 329.148438 336.984375 C 330.316406 336.5 331.453125 335.960938 332.570312 335.363281 C 333.683594 334.769531 334.765625 334.117188 335.8125 333.414062 C 336.863281 332.714844 337.875 331.960938 338.851562 331.160156 C 339.828125 330.355469 340.761719 329.507812 341.65625 328.613281 C 342.550781 327.71875 343.394531 326.785156 344.195312 325.804688 C 345 324.828125 345.75 323.8125 346.449219 322.761719 C 347.152344 321.710938 347.800781 320.628906 348.394531 319.511719 C 348.992188 318.398438 349.53125 317.253906 350.015625 316.085938 C 350.496094 314.917969 350.921875 313.730469 351.289062 312.519531 C 351.65625 311.308594 351.960938 310.082031 352.207031 308.84375 C 352.453125 307.601562 352.640625 306.351562 352.761719 305.09375 C 352.886719 303.835938 352.949219 302.574219 352.949219 301.308594 L 352.949219 224.082031 L 324.03125 224.082031 C 323.398438 224.082031 322.773438 224.023438 322.152344 223.898438 C 321.53125 223.773438 320.929688 223.589844 320.34375 223.347656 C 319.757812 223.105469 319.203125 222.808594 318.675781 222.457031 C 318.152344 222.105469 317.664062 221.703125 317.21875 221.257812 C 316.769531 220.808594 316.371094 220.320312 316.019531 219.792969 C 315.667969 219.265625 315.371094 218.710938 315.128906 218.125 C 314.886719 217.539062 314.703125 216.933594 314.578125 216.3125 C 314.457031 215.691406 314.394531 215.0625 314.394531 214.429688 C 314.394531 213.796875 314.457031 213.167969 314.578125 212.546875 C 314.703125 211.925781 314.886719 211.320312 315.128906 210.738281 C 315.371094 210.152344 315.667969 209.59375 316.019531 209.066406 C 316.371094 208.539062 316.769531 208.054688 317.21875 207.605469 C 317.664062 207.15625 318.152344 206.757812 318.675781 206.402344 C 319.203125 206.050781 319.757812 205.753906 320.34375 205.511719 C 320.929688 205.269531 321.53125 205.085938 322.152344 204.960938 C 322.773438 204.839844 323.398438 204.777344 324.03125 204.777344 L 352.949219 204.777344 L 352.949219 166.164062 L 324.03125 166.164062 C 323.398438 166.164062 322.773438 166.101562 322.152344 165.980469 C 321.53125 165.855469 320.929688 165.671875 320.34375 165.429688 C 319.757812 165.1875 319.203125 164.890625 318.675781 164.539062 C 318.152344 164.183594 317.664062 163.785156 317.21875 163.335938 C 316.769531 162.886719 316.371094 162.402344 316.019531 161.875 C 315.667969 161.347656 315.371094 160.789062 315.128906 160.203125 C 314.886719 159.621094 314.703125 159.015625 314.578125 158.394531 C 314.457031 157.773438 314.394531 157.144531 314.394531 156.511719 C 314.394531 155.875 314.457031 155.25 314.578125 154.628906 C 314.703125 154.003906 314.886719 153.402344 315.128906 152.816406 C 315.371094 152.230469 315.667969 151.675781 316.019531 151.148438 C 316.371094 150.621094 316.769531 150.132812 317.21875 149.683594 C 317.664062 149.238281 318.152344 148.835938 318.675781 148.484375 C 319.203125 148.132812 319.757812 147.835938 320.34375 147.59375 C 320.929688 147.351562 321.53125 147.167969 322.152344 147.042969 C 322.773438 146.917969 323.398438 146.859375 324.03125 146.859375 L 352.949219 146.859375 L 352.949219 108.246094 L 324.03125 108.246094 C 323.398438 108.246094 322.773438 108.183594 322.152344 108.058594 C 321.53125 107.933594 320.929688 107.753906 320.34375 107.507812 C 319.757812 107.265625 319.203125 106.96875 318.675781 106.617188 C 318.152344 106.265625 317.664062 105.863281 317.21875 105.417969 C 316.769531 104.96875 316.371094 104.480469 316.019531 103.953125 C 315.667969 103.425781 315.371094 102.871094 315.128906 102.285156 C 314.886719 101.699219 314.703125 101.097656 314.578125 100.472656 C 314.457031 99.851562 314.394531 99.226562 314.394531 98.589844 C 314.394531 97.957031 314.457031 97.328125 314.578125 96.707031 C 314.703125 96.085938 314.886719 95.484375 315.128906 94.898438 C 315.371094 94.3125 315.667969 93.753906 316.019531 93.226562 C 316.371094 92.699219 316.769531 92.214844 317.21875 91.765625 C 317.664062 91.316406 318.152344 90.917969 318.675781 90.566406 C 319.203125 90.210938 319.757812 89.914062 320.34375 89.671875 C 320.929688 89.429688 321.53125 89.246094 322.152344 89.125 C 322.773438 89 323.398438 88.9375 324.03125 88.9375 L 352.949219 88.9375 L 352.949219 50.324219 L 362.585938 50.324219 C 363.21875 50.324219 363.847656 50.261719 364.46875 50.140625 C 365.089844 50.015625 365.691406 49.832031 366.277344 49.589844 C 366.859375 49.347656 367.414062 49.050781 367.941406 48.699219 C 368.46875 48.34375 368.957031 47.945312 369.402344 47.496094 C 369.851562 47.050781 370.25 46.5625 370.601562 46.035156 C 370.953125 45.507812 371.25 44.949219 371.492188 44.367188 C 371.734375 43.78125 371.917969 43.175781 372.039062 42.554688 C 372.164062 41.933594 372.226562 41.304688 372.226562 40.671875 C 372.226562 40.039062 372.164062 39.410156 372.039062 38.789062 C 371.917969 38.167969 371.734375 37.5625 371.492188 36.976562 C 371.25 36.390625 370.953125 35.835938 370.601562 35.308594 C 370.25 34.78125 369.851562 34.292969 369.402344 33.84375 C 368.957031 33.398438 368.46875 32.996094 367.941406 32.644531 C 367.414062 32.292969 366.859375 31.996094 366.277344 31.753906 C 365.691406 31.511719 365.089844 31.328125 364.46875 31.203125 C 363.847656 31.078125 363.21875 31.019531 362.585938 31.019531 Z M 362.585938 31.019531 "/>
</g>
</g>
</svg>
